<mxfile host="app.diagrams.net" modified="2024-04-21T20:30:22.625Z" agent="Mozilla/5.0 (Macintosh; Intel Mac OS X 10.15; rv:124.0) Gecko/20100101 Firefox/124.0" etag="yIz-YwI2HGMu7kGJoBcT" version="24.2.7" type="device">
  <diagram name="Page-1" id="Eiqm42cvu3vuXSm7mtx2">
    <mxGraphModel dx="3119" dy="1206" grid="1" gridSize="10" guides="1" tooltips="1" connect="1" arrows="1" fold="1" page="1" pageScale="1" pageWidth="850" pageHeight="1100" math="0" shadow="0">
      <root>
        <mxCell id="0" />
        <mxCell id="1" parent="0" />
        <mxCell id="zF3IEiv7uAdP8a5Uo8H7-1" value="" style="rounded=0;whiteSpace=wrap;html=1;" vertex="1" parent="1">
          <mxGeometry x="-840" y="50" width="740" height="1100" as="geometry" />
        </mxCell>
        <mxCell id="zF3IEiv7uAdP8a5Uo8H7-68" value="список всех филиалов" style="shape=table;childLayout=tableLayout;startSize=40;collapsible=0;recursiveResize=0;expand=0;fontSize=16;" vertex="1" parent="1">
          <mxGeometry x="-780" y="170" width="660" height="120" as="geometry" />
        </mxCell>
        <mxCell id="zF3IEiv7uAdP8a5Uo8H7-69" value="" style="shape=tableRow;horizontal=0;swimlaneHead=0;swimlaneBody=0;top=0;left=0;strokeColor=inherit;bottom=0;right=0;dropTarget=0;fontStyle=0;fillColor=none;points=[[0,0.5],[1,0.5]];portConstraint=eastwest;startSize=0;collapsible=0;recursiveResize=0;expand=0;fontSize=16;" vertex="1" parent="zF3IEiv7uAdP8a5Uo8H7-68">
          <mxGeometry y="40" width="660" height="40" as="geometry" />
        </mxCell>
        <mxCell id="zF3IEiv7uAdP8a5Uo8H7-128" value="Id" style="swimlane;swimlaneHead=0;swimlaneBody=0;fontStyle=0;strokeColor=inherit;connectable=0;fillColor=none;startSize=40;collapsible=0;recursiveResize=0;expand=0;fontSize=16;" vertex="1" parent="zF3IEiv7uAdP8a5Uo8H7-69">
          <mxGeometry width="132" height="40" as="geometry">
            <mxRectangle width="132" height="40" as="alternateBounds" />
          </mxGeometry>
        </mxCell>
        <mxCell id="zF3IEiv7uAdP8a5Uo8H7-70" value="Город" style="swimlane;swimlaneHead=0;swimlaneBody=0;fontStyle=0;strokeColor=inherit;connectable=0;fillColor=none;startSize=40;collapsible=0;recursiveResize=0;expand=0;fontSize=16;" vertex="1" parent="zF3IEiv7uAdP8a5Uo8H7-69">
          <mxGeometry x="132" width="132" height="40" as="geometry">
            <mxRectangle width="132" height="40" as="alternateBounds" />
          </mxGeometry>
        </mxCell>
        <mxCell id="zF3IEiv7uAdP8a5Uo8H7-71" value="Адресс" style="swimlane;swimlaneHead=0;swimlaneBody=0;fontStyle=0;strokeColor=inherit;connectable=0;fillColor=none;startSize=40;collapsible=0;recursiveResize=0;expand=0;fontSize=16;" vertex="1" parent="zF3IEiv7uAdP8a5Uo8H7-69">
          <mxGeometry x="264" width="132" height="40" as="geometry">
            <mxRectangle width="132" height="40" as="alternateBounds" />
          </mxGeometry>
        </mxCell>
        <mxCell id="zF3IEiv7uAdP8a5Uo8H7-72" value="Число &#xa;сотрудников" style="swimlane;swimlaneHead=0;swimlaneBody=0;fontStyle=0;strokeColor=inherit;connectable=0;fillColor=none;startSize=40;collapsible=0;recursiveResize=0;expand=0;fontSize=16;" vertex="1" parent="zF3IEiv7uAdP8a5Uo8H7-69">
          <mxGeometry x="396" width="132" height="40" as="geometry">
            <mxRectangle width="132" height="40" as="alternateBounds" />
          </mxGeometry>
        </mxCell>
        <mxCell id="zF3IEiv7uAdP8a5Uo8H7-112" style="swimlane;swimlaneHead=0;swimlaneBody=0;fontStyle=0;strokeColor=inherit;connectable=0;fillColor=none;startSize=40;collapsible=0;recursiveResize=0;expand=0;fontSize=16;" vertex="1" parent="zF3IEiv7uAdP8a5Uo8H7-69">
          <mxGeometry x="528" width="132" height="40" as="geometry">
            <mxRectangle width="132" height="40" as="alternateBounds" />
          </mxGeometry>
        </mxCell>
        <mxCell id="zF3IEiv7uAdP8a5Uo8H7-81" value="" style="shape=tableRow;horizontal=0;swimlaneHead=0;swimlaneBody=0;top=0;left=0;strokeColor=inherit;bottom=0;right=0;dropTarget=0;fontStyle=0;fillColor=none;points=[[0,0.5],[1,0.5]];portConstraint=eastwest;startSize=0;collapsible=0;recursiveResize=0;expand=0;fontSize=16;" vertex="1" parent="zF3IEiv7uAdP8a5Uo8H7-68">
          <mxGeometry y="80" width="660" height="40" as="geometry" />
        </mxCell>
        <mxCell id="zF3IEiv7uAdP8a5Uo8H7-129" value="" style="swimlane;swimlaneHead=0;swimlaneBody=0;fontStyle=0;strokeColor=inherit;connectable=0;fillColor=none;startSize=40;collapsible=0;recursiveResize=0;expand=0;fontSize=16;" vertex="1" parent="zF3IEiv7uAdP8a5Uo8H7-81">
          <mxGeometry width="132" height="40" as="geometry">
            <mxRectangle width="132" height="40" as="alternateBounds" />
          </mxGeometry>
        </mxCell>
        <UserObject label="1" link="https://www.draw.io" id="XJr4wuWGLSTRRMjW4_s--34">
          <mxCell style="text;html=1;strokeColor=none;fillColor=none;whiteSpace=wrap;align=center;verticalAlign=middle;fontColor=#0000EE;fontStyle=4;" vertex="1" parent="zF3IEiv7uAdP8a5Uo8H7-129">
            <mxGeometry x="21" width="60" height="40" as="geometry" />
          </mxCell>
        </UserObject>
        <mxCell id="zF3IEiv7uAdP8a5Uo8H7-82" value="Киров" style="swimlane;swimlaneHead=0;swimlaneBody=0;fontStyle=0;strokeColor=inherit;connectable=0;fillColor=none;startSize=40;collapsible=0;recursiveResize=0;expand=0;fontSize=16;" vertex="1" parent="zF3IEiv7uAdP8a5Uo8H7-81">
          <mxGeometry x="132" width="132" height="40" as="geometry">
            <mxRectangle width="132" height="40" as="alternateBounds" />
          </mxGeometry>
        </mxCell>
        <mxCell id="zF3IEiv7uAdP8a5Uo8H7-83" value="Ленина,42" style="swimlane;swimlaneHead=0;swimlaneBody=0;fontStyle=0;strokeColor=inherit;connectable=0;fillColor=none;startSize=40;collapsible=0;recursiveResize=0;expand=0;fontSize=16;" vertex="1" parent="zF3IEiv7uAdP8a5Uo8H7-81">
          <mxGeometry x="264" width="132" height="40" as="geometry">
            <mxRectangle width="132" height="40" as="alternateBounds" />
          </mxGeometry>
        </mxCell>
        <mxCell id="zF3IEiv7uAdP8a5Uo8H7-84" value="30" style="swimlane;swimlaneHead=0;swimlaneBody=0;fontStyle=0;strokeColor=inherit;connectable=0;fillColor=none;startSize=40;collapsible=0;recursiveResize=0;expand=0;fontSize=16;" vertex="1" parent="zF3IEiv7uAdP8a5Uo8H7-81">
          <mxGeometry x="396" width="132" height="40" as="geometry">
            <mxRectangle width="132" height="40" as="alternateBounds" />
          </mxGeometry>
        </mxCell>
        <mxCell id="zF3IEiv7uAdP8a5Uo8H7-113" value="Удалить" style="swimlane;swimlaneHead=0;swimlaneBody=0;fontStyle=0;strokeColor=inherit;connectable=0;fillColor=none;startSize=40;collapsible=0;recursiveResize=0;expand=0;fontSize=16;" vertex="1" parent="zF3IEiv7uAdP8a5Uo8H7-81">
          <mxGeometry x="528" width="132" height="40" as="geometry">
            <mxRectangle width="132" height="40" as="alternateBounds" />
          </mxGeometry>
        </mxCell>
        <mxCell id="zF3IEiv7uAdP8a5Uo8H7-110" value="Список Фильялов" style="text;strokeColor=none;fillColor=none;html=1;fontSize=24;fontStyle=1;verticalAlign=middle;align=center;" vertex="1" parent="1">
          <mxGeometry x="-630" y="90" width="370" height="40" as="geometry" />
        </mxCell>
        <mxCell id="XJr4wuWGLSTRRMjW4_s--2" value="" style="whiteSpace=wrap;html=1;aspect=fixed;" vertex="1" parent="1">
          <mxGeometry x="40" y="520" width="670" height="670" as="geometry" />
        </mxCell>
        <UserObject label="&lt;span data-richtext-inline-code=&quot;true&quot; class=&quot;inline-code inline-code_start inline-code_end&quot; style=&quot;color: rgb(129, 129, 129); background-color: rgba(129, 129, 129, 0.1);&quot;&gt;Филиалы&lt;/span&gt;" link="https://www.draw.io" id="XJr4wuWGLSTRRMjW4_s--38">
          <mxCell style="text;html=1;strokeColor=none;fillColor=none;whiteSpace=wrap;align=center;verticalAlign=middle;fontColor=#0000EE;fontStyle=4;" vertex="1" parent="1">
            <mxGeometry x="80" y="530" width="60" height="40" as="geometry" />
          </mxCell>
        </UserObject>
        <UserObject label="&lt;span data-richtext-inline-code=&quot;true&quot; class=&quot;inline-code inline-code_start inline-code_end&quot; style=&quot;color: rgb(129, 129, 129); background-color: rgba(129, 129, 129, 0.1);&quot;&gt;Киров, Комсомольская 42&lt;/span&gt;" link="https://www.draw.io" id="XJr4wuWGLSTRRMjW4_s--39">
          <mxCell style="text;html=1;strokeColor=none;fillColor=none;whiteSpace=wrap;align=center;verticalAlign=middle;fontColor=#0000EE;fontStyle=4;" vertex="1" parent="1">
            <mxGeometry x="140" y="535" width="170" height="30" as="geometry" />
          </mxCell>
        </UserObject>
        <UserObject label="ПЕТРОВ ИВАН ИВАНОВИЧ" id="XJr4wuWGLSTRRMjW4_s--40">
          <mxCell style="text;html=1;strokeColor=none;fillColor=none;whiteSpace=wrap;align=center;verticalAlign=middle;fontColor=#0000EE;fontStyle=4;" vertex="1" parent="1">
            <mxGeometry x="300" y="530" width="180" height="40" as="geometry" />
          </mxCell>
        </UserObject>
        <mxCell id="XJr4wuWGLSTRRMjW4_s--46" value="" style="html=1;shadow=0;dashed=0;align=center;verticalAlign=middle;shape=mxgraph.arrows2.arrow;dy=0;dx=30;notch=30;" vertex="1" parent="1">
          <mxGeometry x="140" y="545" width="10" height="10" as="geometry" />
        </mxCell>
        <mxCell id="XJr4wuWGLSTRRMjW4_s--51" value="" style="html=1;shadow=0;dashed=0;align=center;verticalAlign=middle;shape=mxgraph.arrows2.arrow;dy=0;dx=30;notch=30;" vertex="1" parent="1">
          <mxGeometry x="300" y="545" width="10" height="10" as="geometry" />
        </mxCell>
        <mxCell id="XJr4wuWGLSTRRMjW4_s--53" value="&lt;font style=&quot;font-size: 15px;&quot;&gt;Загрузить&lt;/font&gt;" style="text;strokeColor=none;fillColor=none;html=1;fontSize=24;fontStyle=1;verticalAlign=middle;align=center;" vertex="1" parent="1">
          <mxGeometry x="-700" y="660" width="100" height="40" as="geometry" />
        </mxCell>
        <mxCell id="XJr4wuWGLSTRRMjW4_s--54" value="ПЕТРОВ ИВАН ИВАНОВИЧ" style="rounded=0;whiteSpace=wrap;html=1;" vertex="1" parent="1">
          <mxGeometry x="350" y="630" width="300" height="30" as="geometry" />
        </mxCell>
        <mxCell id="XJr4wuWGLSTRRMjW4_s--55" value="МЕНДЖЕР" style="rounded=0;whiteSpace=wrap;html=1;" vertex="1" parent="1">
          <mxGeometry x="350" y="675" width="300" height="25" as="geometry" />
        </mxCell>
        <mxCell id="XJr4wuWGLSTRRMjW4_s--56" value="ПОЛ" style="rounded=0;whiteSpace=wrap;html=1;" vertex="1" parent="1">
          <mxGeometry x="350" y="715" width="300" height="30" as="geometry" />
        </mxCell>
        <mxCell id="TM6kRPImTezDNo1EGvz8-3" value="" style="rounded=0;whiteSpace=wrap;html=1;" vertex="1" parent="1">
          <mxGeometry x="-780" y="330" width="660" height="150" as="geometry" />
        </mxCell>
        <mxCell id="TM6kRPImTezDNo1EGvz8-4" value="Введите Город" style="rounded=0;whiteSpace=wrap;html=1;" vertex="1" parent="1">
          <mxGeometry x="-760" y="350" width="320" height="40" as="geometry" />
        </mxCell>
        <mxCell id="TM6kRPImTezDNo1EGvz8-5" value="" style="rounded=1;whiteSpace=wrap;html=1;" vertex="1" parent="1">
          <mxGeometry x="-370" y="415" width="120" height="30" as="geometry" />
        </mxCell>
        <mxCell id="TM6kRPImTezDNo1EGvz8-6" value="ДОБАВИТЬ" style="text;html=1;align=center;verticalAlign=middle;whiteSpace=wrap;rounded=0;" vertex="1" parent="1">
          <mxGeometry x="-340" y="415" width="60" height="30" as="geometry" />
        </mxCell>
        <mxCell id="TM6kRPImTezDNo1EGvz8-7" value="Адрресс" style="rounded=0;whiteSpace=wrap;html=1;" vertex="1" parent="1">
          <mxGeometry x="-760" y="410" width="320" height="40" as="geometry" />
        </mxCell>
        <mxCell id="TM6kRPImTezDNo1EGvz8-9" value="" style="rounded=0;whiteSpace=wrap;html=1;" vertex="1" parent="1">
          <mxGeometry x="-840" y="540" width="740" height="630" as="geometry" />
        </mxCell>
        <mxCell id="TM6kRPImTezDNo1EGvz8-10" value="" style="rounded=0;whiteSpace=wrap;html=1;" vertex="1" parent="1">
          <mxGeometry x="-760" y="595" width="220" height="335" as="geometry" />
        </mxCell>
        <mxCell id="TM6kRPImTezDNo1EGvz8-11" value="ЗАГРУЗИТЬ" style="rounded=1;whiteSpace=wrap;html=1;" vertex="1" parent="1">
          <mxGeometry x="-700" y="745" width="120" height="30" as="geometry" />
        </mxCell>
        <mxCell id="TM6kRPImTezDNo1EGvz8-12" value="ФИО" style="rounded=0;whiteSpace=wrap;html=1;" vertex="1" parent="1">
          <mxGeometry x="-520" y="595" width="330" height="35" as="geometry" />
        </mxCell>
        <mxCell id="TM6kRPImTezDNo1EGvz8-13" value="Должность" style="rounded=0;whiteSpace=wrap;html=1;" vertex="1" parent="1">
          <mxGeometry x="-520" y="640" width="330" height="40" as="geometry" />
        </mxCell>
        <mxCell id="TM6kRPImTezDNo1EGvz8-14" value="Номер Телефона" style="rounded=0;whiteSpace=wrap;html=1;" vertex="1" parent="1">
          <mxGeometry x="-520" y="690" width="330" height="40" as="geometry" />
        </mxCell>
        <mxCell id="TM6kRPImTezDNo1EGvz8-15" value="&lt;div&gt;E-mail&lt;/div&gt;" style="rounded=0;whiteSpace=wrap;html=1;" vertex="1" parent="1">
          <mxGeometry x="-520" y="745" width="330" height="35" as="geometry" />
        </mxCell>
        <mxCell id="TM6kRPImTezDNo1EGvz8-16" value="Пол" style="rounded=0;whiteSpace=wrap;html=1;" vertex="1" parent="1">
          <mxGeometry x="-520" y="790" width="330" height="40" as="geometry" />
        </mxCell>
        <mxCell id="TM6kRPImTezDNo1EGvz8-17" value="Дата Рождения" style="rounded=0;whiteSpace=wrap;html=1;" vertex="1" parent="1">
          <mxGeometry x="-520" y="840" width="330" height="40" as="geometry" />
        </mxCell>
        <mxCell id="TM6kRPImTezDNo1EGvz8-18" value="Дата найма" style="rounded=0;whiteSpace=wrap;html=1;" vertex="1" parent="1">
          <mxGeometry x="-520" y="890" width="330" height="40" as="geometry" />
        </mxCell>
        <mxCell id="TM6kRPImTezDNo1EGvz8-19" value="Коментарий" style="rounded=0;whiteSpace=wrap;html=1;" vertex="1" parent="1">
          <mxGeometry x="-760" y="940" width="570" height="90" as="geometry" />
        </mxCell>
        <mxCell id="TM6kRPImTezDNo1EGvz8-21" value="СОХРАНИТЬ" style="rounded=1;whiteSpace=wrap;html=1;" vertex="1" parent="1">
          <mxGeometry x="-360" y="1060" width="170" height="60" as="geometry" />
        </mxCell>
        <mxCell id="TM6kRPImTezDNo1EGvz8-22" style="edgeStyle=orthogonalEdgeStyle;rounded=0;orthogonalLoop=1;jettySize=auto;html=1;exitX=0.5;exitY=1;exitDx=0;exitDy=0;" edge="1" parent="1" source="TM6kRPImTezDNo1EGvz8-11" target="TM6kRPImTezDNo1EGvz8-11">
          <mxGeometry relative="1" as="geometry" />
        </mxCell>
        <mxCell id="TM6kRPImTezDNo1EGvz8-23" value="ФОТО" style="rounded=0;whiteSpace=wrap;html=1;" vertex="1" parent="1">
          <mxGeometry x="80" y="630" width="245" height="310" as="geometry" />
        </mxCell>
        <mxCell id="TM6kRPImTezDNo1EGvz8-24" value="ДАТА РОЖДЕНИЯ" style="rounded=0;whiteSpace=wrap;html=1;" vertex="1" parent="1">
          <mxGeometry x="350" y="757.5" width="300" height="32.5" as="geometry" />
        </mxCell>
        <mxCell id="TM6kRPImTezDNo1EGvz8-25" value="&lt;b style=&quot;font-size: 24px;&quot;&gt;Карточка Сотрудника&lt;br&gt;&lt;/b&gt;" style="text;html=1;align=center;verticalAlign=middle;whiteSpace=wrap;rounded=0;" vertex="1" parent="1">
          <mxGeometry x="260" y="570" width="315" height="30" as="geometry" />
        </mxCell>
        <mxCell id="TM6kRPImTezDNo1EGvz8-26" value="Email" style="rounded=0;whiteSpace=wrap;html=1;" vertex="1" parent="1">
          <mxGeometry x="350" y="805" width="300" height="35" as="geometry" />
        </mxCell>
        <mxCell id="TM6kRPImTezDNo1EGvz8-27" value="НОМЕР ТЕЛЕФОНА" style="rounded=0;whiteSpace=wrap;html=1;" vertex="1" parent="1">
          <mxGeometry x="350" y="850" width="300" height="40" as="geometry" />
        </mxCell>
        <mxCell id="TM6kRPImTezDNo1EGvz8-28" value="ДАТА НАЙМА" style="rounded=0;whiteSpace=wrap;html=1;" vertex="1" parent="1">
          <mxGeometry x="350" y="900" width="300" height="40" as="geometry" />
        </mxCell>
        <mxCell id="TM6kRPImTezDNo1EGvz8-29" value="Коментарий" style="rounded=0;whiteSpace=wrap;html=1;" vertex="1" parent="1">
          <mxGeometry x="80" y="980" width="570" height="90" as="geometry" />
        </mxCell>
        <mxCell id="TM6kRPImTezDNo1EGvz8-36" style="edgeStyle=orthogonalEdgeStyle;rounded=0;orthogonalLoop=1;jettySize=auto;html=1;exitX=0;exitY=1;exitDx=0;exitDy=0;" edge="1" parent="1" source="TM6kRPImTezDNo1EGvz8-30" target="TM6kRPImTezDNo1EGvz8-9">
          <mxGeometry relative="1" as="geometry">
            <Array as="points">
              <mxPoint x="600" y="480" />
              <mxPoint x="600" y="500" />
              <mxPoint x="-440" y="500" />
            </Array>
          </mxGeometry>
        </mxCell>
        <mxCell id="TM6kRPImTezDNo1EGvz8-30" value="" style="rounded=0;whiteSpace=wrap;html=1;" vertex="1" parent="1">
          <mxGeometry x="40" y="50" width="670" height="430" as="geometry" />
        </mxCell>
        <mxCell id="TM6kRPImTezDNo1EGvz8-31" value="&lt;font style=&quot;font-size: 24px;&quot;&gt;&lt;b&gt;Фильял&lt;/b&gt;&lt;/font&gt;" style="text;html=1;align=center;verticalAlign=middle;whiteSpace=wrap;rounded=0;" vertex="1" parent="1">
          <mxGeometry x="230" y="90" width="310" height="30" as="geometry" />
        </mxCell>
        <mxCell id="TM6kRPImTezDNo1EGvz8-35" value="&lt;font style=&quot;font-size: 24px;&quot;&gt;ДОБАВИТЬ СОТРУДНИКА&lt;br&gt;&lt;/font&gt;" style="text;html=1;align=center;verticalAlign=middle;whiteSpace=wrap;rounded=0;" vertex="1" parent="1">
          <mxGeometry x="-670" y="545" width="370" height="30" as="geometry" />
        </mxCell>
        <mxCell id="TM6kRPImTezDNo1EGvz8-44" value="&lt;span data-richtext-inline-code=&quot;true&quot; class=&quot;inline-code inline-code_start inline-code_end&quot; style=&quot;color: rgb(129, 129, 129); background-color: rgba(129, 129, 129, 0.1);&quot;&gt;Город :&amp;nbsp; КИРОВ&lt;br&gt;&lt;/span&gt;" style="text;strokeColor=none;fillColor=none;html=1;fontSize=24;fontStyle=1;verticalAlign=middle;align=center;" vertex="1" parent="1">
          <mxGeometry x="65" y="140" width="205" height="40" as="geometry" />
        </mxCell>
        <mxCell id="TM6kRPImTezDNo1EGvz8-45" value="РЕДАКТИРОВАТЬ" style="rounded=1;whiteSpace=wrap;html=1;" vertex="1" parent="1">
          <mxGeometry x="470" y="145" width="120" height="30" as="geometry" />
        </mxCell>
        <mxCell id="TM6kRPImTezDNo1EGvz8-47" value="&lt;span data-richtext-inline-code=&quot;true&quot; class=&quot;inline-code inline-code_start inline-code_end&quot; style=&quot;color: rgb(129, 129, 129); background-color: rgba(129, 129, 129, 0.1);&quot;&gt;Адресс :&amp;nbsp; Комсомольская 42&lt;br&gt;&lt;/span&gt;" style="text;strokeColor=none;fillColor=none;html=1;fontSize=24;fontStyle=1;verticalAlign=middle;align=center;" vertex="1" parent="1">
          <mxGeometry x="65" y="190" width="355" height="40" as="geometry" />
        </mxCell>
        <mxCell id="TM6kRPImTezDNo1EGvz8-48" value="РЕДАКТИРОВАТЬ" style="rounded=1;whiteSpace=wrap;html=1;" vertex="1" parent="1">
          <mxGeometry x="470" y="190" width="120" height="30" as="geometry" />
        </mxCell>
        <mxCell id="TM6kRPImTezDNo1EGvz8-49" value="Список сотрудников" style="shape=table;childLayout=tableLayout;startSize=40;collapsible=0;recursiveResize=0;expand=0;fontSize=16;" vertex="1" parent="1">
          <mxGeometry x="50" y="280" width="630" height="120" as="geometry" />
        </mxCell>
        <mxCell id="TM6kRPImTezDNo1EGvz8-50" value="" style="shape=tableRow;horizontal=0;swimlaneHead=0;swimlaneBody=0;top=0;left=0;strokeColor=inherit;bottom=0;right=0;dropTarget=0;fontStyle=0;fillColor=none;points=[[0,0.5],[1,0.5]];portConstraint=eastwest;startSize=0;collapsible=0;recursiveResize=0;expand=0;fontSize=16;" vertex="1" parent="TM6kRPImTezDNo1EGvz8-49">
          <mxGeometry y="40" width="630" height="40" as="geometry" />
        </mxCell>
        <mxCell id="TM6kRPImTezDNo1EGvz8-51" value="Id" style="swimlane;swimlaneHead=0;swimlaneBody=0;fontStyle=0;strokeColor=inherit;connectable=0;fillColor=none;startSize=40;collapsible=0;recursiveResize=0;expand=0;fontSize=16;" vertex="1" parent="TM6kRPImTezDNo1EGvz8-50">
          <mxGeometry width="158" height="40" as="geometry">
            <mxRectangle width="158" height="40" as="alternateBounds" />
          </mxGeometry>
        </mxCell>
        <mxCell id="TM6kRPImTezDNo1EGvz8-52" value="ФИО" style="swimlane;swimlaneHead=0;swimlaneBody=0;fontStyle=0;strokeColor=inherit;connectable=0;fillColor=none;startSize=40;collapsible=0;recursiveResize=0;expand=0;fontSize=16;" vertex="1" parent="TM6kRPImTezDNo1EGvz8-50">
          <mxGeometry x="158" width="158" height="40" as="geometry">
            <mxRectangle width="158" height="40" as="alternateBounds" />
          </mxGeometry>
        </mxCell>
        <mxCell id="TM6kRPImTezDNo1EGvz8-53" value="Должность" style="swimlane;swimlaneHead=0;swimlaneBody=0;fontStyle=0;strokeColor=inherit;connectable=0;fillColor=none;startSize=40;collapsible=0;recursiveResize=0;expand=0;fontSize=16;" vertex="1" parent="TM6kRPImTezDNo1EGvz8-50">
          <mxGeometry x="316" width="156" height="40" as="geometry">
            <mxRectangle width="156" height="40" as="alternateBounds" />
          </mxGeometry>
        </mxCell>
        <mxCell id="TM6kRPImTezDNo1EGvz8-54" value="" style="swimlane;swimlaneHead=0;swimlaneBody=0;fontStyle=0;strokeColor=inherit;connectable=0;fillColor=none;startSize=40;collapsible=0;recursiveResize=0;expand=0;fontSize=16;" vertex="1" parent="TM6kRPImTezDNo1EGvz8-50">
          <mxGeometry x="472" width="158" height="40" as="geometry">
            <mxRectangle width="158" height="40" as="alternateBounds" />
          </mxGeometry>
        </mxCell>
        <mxCell id="TM6kRPImTezDNo1EGvz8-56" value="" style="shape=tableRow;horizontal=0;swimlaneHead=0;swimlaneBody=0;top=0;left=0;strokeColor=inherit;bottom=0;right=0;dropTarget=0;fontStyle=0;fillColor=none;points=[[0,0.5],[1,0.5]];portConstraint=eastwest;startSize=0;collapsible=0;recursiveResize=0;expand=0;fontSize=16;" vertex="1" parent="TM6kRPImTezDNo1EGvz8-49">
          <mxGeometry y="80" width="630" height="40" as="geometry" />
        </mxCell>
        <mxCell id="TM6kRPImTezDNo1EGvz8-57" value="" style="swimlane;swimlaneHead=0;swimlaneBody=0;fontStyle=0;strokeColor=inherit;connectable=0;fillColor=none;startSize=40;collapsible=0;recursiveResize=0;expand=0;fontSize=16;" vertex="1" parent="TM6kRPImTezDNo1EGvz8-56">
          <mxGeometry width="158" height="40" as="geometry">
            <mxRectangle width="158" height="40" as="alternateBounds" />
          </mxGeometry>
        </mxCell>
        <UserObject label="1" link="https://www.draw.io" id="TM6kRPImTezDNo1EGvz8-58">
          <mxCell style="text;html=1;strokeColor=none;fillColor=none;whiteSpace=wrap;align=center;verticalAlign=middle;fontColor=#0000EE;fontStyle=4;" vertex="1" parent="TM6kRPImTezDNo1EGvz8-57">
            <mxGeometry x="21" width="60" height="40" as="geometry" />
          </mxCell>
        </UserObject>
        <mxCell id="TM6kRPImTezDNo1EGvz8-59" value="Петров Иван Иванович&#xa;" style="swimlane;swimlaneHead=0;swimlaneBody=0;fontStyle=0;strokeColor=inherit;connectable=0;fillColor=none;startSize=40;collapsible=0;recursiveResize=0;expand=0;fontSize=10;" vertex="1" parent="TM6kRPImTezDNo1EGvz8-56">
          <mxGeometry x="158" width="158" height="40" as="geometry">
            <mxRectangle width="158" height="40" as="alternateBounds" />
          </mxGeometry>
        </mxCell>
        <mxCell id="TM6kRPImTezDNo1EGvz8-60" value="Менджер" style="swimlane;swimlaneHead=0;swimlaneBody=0;fontStyle=0;strokeColor=inherit;connectable=0;fillColor=none;startSize=40;collapsible=0;recursiveResize=0;expand=0;fontSize=16;" vertex="1" parent="TM6kRPImTezDNo1EGvz8-56">
          <mxGeometry x="316" width="156" height="40" as="geometry">
            <mxRectangle width="156" height="40" as="alternateBounds" />
          </mxGeometry>
        </mxCell>
        <mxCell id="TM6kRPImTezDNo1EGvz8-61" value="Удалить" style="swimlane;swimlaneHead=0;swimlaneBody=0;fontStyle=0;strokeColor=inherit;connectable=0;fillColor=none;startSize=40;collapsible=0;recursiveResize=0;expand=0;fontSize=16;" vertex="1" parent="TM6kRPImTezDNo1EGvz8-56">
          <mxGeometry x="472" width="158" height="40" as="geometry">
            <mxRectangle width="158" height="40" as="alternateBounds" />
          </mxGeometry>
        </mxCell>
        <mxCell id="TM6kRPImTezDNo1EGvz8-64" value="Добавить" style="rounded=1;whiteSpace=wrap;html=1;" vertex="1" parent="1">
          <mxGeometry x="520" y="420" width="150" height="50" as="geometry" />
        </mxCell>
        <mxCell id="TM6kRPImTezDNo1EGvz8-65" value="" style="edgeStyle=segmentEdgeStyle;endArrow=classic;html=1;curved=0;rounded=0;endSize=8;startSize=8;" edge="1" parent="1" source="TM6kRPImTezDNo1EGvz8-58">
          <mxGeometry width="50" height="50" relative="1" as="geometry">
            <mxPoint x="440" y="570" as="sourcePoint" />
            <mxPoint x="180" y="520" as="targetPoint" />
            <Array as="points">
              <mxPoint x="180" y="380" />
              <mxPoint x="180" y="520" />
            </Array>
          </mxGeometry>
        </mxCell>
      </root>
    </mxGraphModel>
  </diagram>
</mxfile>
